<mxfile host="app.diagrams.net" agent="Mozilla/5.0 (Macintosh; Intel Mac OS X 10_15_7) AppleWebKit/537.36 (KHTML, like Gecko) Chrome/131.0.0.0 Safari/537.36" version="26.0.3">
  <diagram id="C5RBs43oDa-KdzZeNtuy" name="Page-1">
    <mxGraphModel dx="1434" dy="675" grid="1" gridSize="10" guides="1" tooltips="1" connect="1" arrows="1" fold="1" page="1" pageScale="1" pageWidth="827" pageHeight="1169" math="0" shadow="0">
      <root>
        <mxCell id="WIyWlLk6GJQsqaUBKTNV-0" />
        <mxCell id="WIyWlLk6GJQsqaUBKTNV-1" parent="WIyWlLk6GJQsqaUBKTNV-0" />
        <mxCell id="6U3oOu9trGSd3NTjcaqu-7" value="" style="edgeStyle=orthogonalEdgeStyle;rounded=0;orthogonalLoop=1;jettySize=auto;html=1;" edge="1" parent="WIyWlLk6GJQsqaUBKTNV-1" source="6U3oOu9trGSd3NTjcaqu-3" target="6U3oOu9trGSd3NTjcaqu-6">
          <mxGeometry relative="1" as="geometry" />
        </mxCell>
        <mxCell id="6U3oOu9trGSd3NTjcaqu-3" value="老用户" style="ellipse;whiteSpace=wrap;html=1;" vertex="1" parent="WIyWlLk6GJQsqaUBKTNV-1">
          <mxGeometry x="160" y="40" width="120" height="80" as="geometry" />
        </mxCell>
        <mxCell id="6U3oOu9trGSd3NTjcaqu-11" value="" style="edgeStyle=orthogonalEdgeStyle;rounded=0;orthogonalLoop=1;jettySize=auto;html=1;" edge="1" parent="WIyWlLk6GJQsqaUBKTNV-1" source="6U3oOu9trGSd3NTjcaqu-6" target="6U3oOu9trGSd3NTjcaqu-10">
          <mxGeometry relative="1" as="geometry" />
        </mxCell>
        <mxCell id="6U3oOu9trGSd3NTjcaqu-6" value="显示活动弹窗（自动显示三次，账号关联）" style="whiteSpace=wrap;html=1;" vertex="1" parent="WIyWlLk6GJQsqaUBKTNV-1">
          <mxGeometry x="160" y="210" width="120" height="60" as="geometry" />
        </mxCell>
        <mxCell id="6U3oOu9trGSd3NTjcaqu-13" value="" style="edgeStyle=orthogonalEdgeStyle;rounded=0;orthogonalLoop=1;jettySize=auto;html=1;" edge="1" parent="WIyWlLk6GJQsqaUBKTNV-1" source="6U3oOu9trGSd3NTjcaqu-10" target="6U3oOu9trGSd3NTjcaqu-12">
          <mxGeometry relative="1" as="geometry" />
        </mxCell>
        <mxCell id="6U3oOu9trGSd3NTjcaqu-10" value="展示视频和描述信息（无链提供）" style="whiteSpace=wrap;html=1;" vertex="1" parent="WIyWlLk6GJQsqaUBKTNV-1">
          <mxGeometry x="160" y="350" width="120" height="60" as="geometry" />
        </mxCell>
        <mxCell id="6U3oOu9trGSd3NTjcaqu-15" value="" style="edgeStyle=orthogonalEdgeStyle;rounded=0;orthogonalLoop=1;jettySize=auto;html=1;" edge="1" parent="WIyWlLk6GJQsqaUBKTNV-1" source="6U3oOu9trGSd3NTjcaqu-12" target="6U3oOu9trGSd3NTjcaqu-14">
          <mxGeometry relative="1" as="geometry" />
        </mxCell>
        <mxCell id="6U3oOu9trGSd3NTjcaqu-12" value="点击立即参与" style="whiteSpace=wrap;html=1;" vertex="1" parent="WIyWlLk6GJQsqaUBKTNV-1">
          <mxGeometry x="160" y="490" width="120" height="60" as="geometry" />
        </mxCell>
        <mxCell id="6U3oOu9trGSd3NTjcaqu-17" value="No" style="edgeStyle=orthogonalEdgeStyle;rounded=0;orthogonalLoop=1;jettySize=auto;html=1;" edge="1" parent="WIyWlLk6GJQsqaUBKTNV-1" source="6U3oOu9trGSd3NTjcaqu-14" target="6U3oOu9trGSd3NTjcaqu-16">
          <mxGeometry relative="1" as="geometry" />
        </mxCell>
        <mxCell id="6U3oOu9trGSd3NTjcaqu-92" value="Yes" style="edgeStyle=orthogonalEdgeStyle;rounded=0;orthogonalLoop=1;jettySize=auto;html=1;exitX=0.5;exitY=1;exitDx=0;exitDy=0;entryX=0.5;entryY=0;entryDx=0;entryDy=0;" edge="1" parent="WIyWlLk6GJQsqaUBKTNV-1" source="6U3oOu9trGSd3NTjcaqu-14" target="6U3oOu9trGSd3NTjcaqu-89">
          <mxGeometry relative="1" as="geometry" />
        </mxCell>
        <mxCell id="6U3oOu9trGSd3NTjcaqu-14" value="是否有无链id" style="rhombus;whiteSpace=wrap;html=1;" vertex="1" parent="WIyWlLk6GJQsqaUBKTNV-1">
          <mxGeometry x="180" y="620" width="80" height="80" as="geometry" />
        </mxCell>
        <mxCell id="6U3oOu9trGSd3NTjcaqu-20" value="" style="edgeStyle=orthogonalEdgeStyle;rounded=0;orthogonalLoop=1;jettySize=auto;html=1;" edge="1" parent="WIyWlLk6GJQsqaUBKTNV-1" source="6U3oOu9trGSd3NTjcaqu-16" target="6U3oOu9trGSd3NTjcaqu-19">
          <mxGeometry relative="1" as="geometry" />
        </mxCell>
        <mxCell id="6U3oOu9trGSd3NTjcaqu-16" value="跳转无链落地页" style="whiteSpace=wrap;html=1;" vertex="1" parent="WIyWlLk6GJQsqaUBKTNV-1">
          <mxGeometry x="320" y="630" width="120" height="60" as="geometry" />
        </mxCell>
        <mxCell id="6U3oOu9trGSd3NTjcaqu-19" value="无链注册成功后返回" style="whiteSpace=wrap;html=1;" vertex="1" parent="WIyWlLk6GJQsqaUBKTNV-1">
          <mxGeometry x="520" y="630" width="120" height="60" as="geometry" />
        </mxCell>
        <mxCell id="6U3oOu9trGSd3NTjcaqu-29" value="" style="edgeStyle=orthogonalEdgeStyle;rounded=0;orthogonalLoop=1;jettySize=auto;html=1;" edge="1" parent="WIyWlLk6GJQsqaUBKTNV-1" source="6U3oOu9trGSd3NTjcaqu-21" target="6U3oOu9trGSd3NTjcaqu-28">
          <mxGeometry relative="1" as="geometry" />
        </mxCell>
        <mxCell id="6U3oOu9trGSd3NTjcaqu-21" value="跳转生成链接页（无链提供剩余dw20数量）" style="whiteSpace=wrap;html=1;" vertex="1" parent="WIyWlLk6GJQsqaUBKTNV-1">
          <mxGeometry x="160" y="920" width="120" height="60" as="geometry" />
        </mxCell>
        <mxCell id="6U3oOu9trGSd3NTjcaqu-74" value="" style="edgeStyle=orthogonalEdgeStyle;rounded=0;orthogonalLoop=1;jettySize=auto;html=1;" edge="1" parent="WIyWlLk6GJQsqaUBKTNV-1" source="6U3oOu9trGSd3NTjcaqu-28">
          <mxGeometry relative="1" as="geometry">
            <mxPoint x="220" y="1140" as="targetPoint" />
          </mxGeometry>
        </mxCell>
        <mxCell id="6U3oOu9trGSd3NTjcaqu-28" value="点击创建连接" style="whiteSpace=wrap;html=1;" vertex="1" parent="WIyWlLk6GJQsqaUBKTNV-1">
          <mxGeometry x="160" y="1010" width="120" height="60" as="geometry" />
        </mxCell>
        <mxCell id="6U3oOu9trGSd3NTjcaqu-33" value="" style="edgeStyle=orthogonalEdgeStyle;rounded=0;orthogonalLoop=1;jettySize=auto;html=1;" edge="1" parent="WIyWlLk6GJQsqaUBKTNV-1" source="6U3oOu9trGSd3NTjcaqu-30" target="6U3oOu9trGSd3NTjcaqu-32">
          <mxGeometry relative="1" as="geometry" />
        </mxCell>
        <mxCell id="6U3oOu9trGSd3NTjcaqu-35" value="" style="edgeStyle=orthogonalEdgeStyle;rounded=0;orthogonalLoop=1;jettySize=auto;html=1;" edge="1" parent="WIyWlLk6GJQsqaUBKTNV-1" source="6U3oOu9trGSd3NTjcaqu-30" target="6U3oOu9trGSd3NTjcaqu-34">
          <mxGeometry relative="1" as="geometry" />
        </mxCell>
        <mxCell id="6U3oOu9trGSd3NTjcaqu-30" value="跳转添加红包页（无链提供视频）" style="whiteSpace=wrap;html=1;" vertex="1" parent="WIyWlLk6GJQsqaUBKTNV-1">
          <mxGeometry x="160" y="1140" width="120" height="60" as="geometry" />
        </mxCell>
        <mxCell id="6U3oOu9trGSd3NTjcaqu-43" value="" style="edgeStyle=orthogonalEdgeStyle;rounded=0;orthogonalLoop=1;jettySize=auto;html=1;" edge="1" parent="WIyWlLk6GJQsqaUBKTNV-1" source="6U3oOu9trGSd3NTjcaqu-32" target="6U3oOu9trGSd3NTjcaqu-42">
          <mxGeometry relative="1" as="geometry" />
        </mxCell>
        <mxCell id="6U3oOu9trGSd3NTjcaqu-32" value="点击稍后添加" style="whiteSpace=wrap;html=1;" vertex="1" parent="WIyWlLk6GJQsqaUBKTNV-1">
          <mxGeometry x="160" y="1280" width="120" height="60" as="geometry" />
        </mxCell>
        <mxCell id="6U3oOu9trGSd3NTjcaqu-37" value="" style="edgeStyle=orthogonalEdgeStyle;rounded=0;orthogonalLoop=1;jettySize=auto;html=1;" edge="1" parent="WIyWlLk6GJQsqaUBKTNV-1" source="6U3oOu9trGSd3NTjcaqu-34" target="6U3oOu9trGSd3NTjcaqu-36">
          <mxGeometry relative="1" as="geometry" />
        </mxCell>
        <mxCell id="6U3oOu9trGSd3NTjcaqu-34" value="点击现在添加" style="whiteSpace=wrap;html=1;" vertex="1" parent="WIyWlLk6GJQsqaUBKTNV-1">
          <mxGeometry x="360" y="1140" width="120" height="60" as="geometry" />
        </mxCell>
        <mxCell id="6U3oOu9trGSd3NTjcaqu-39" value="" style="edgeStyle=orthogonalEdgeStyle;rounded=0;orthogonalLoop=1;jettySize=auto;html=1;" edge="1" parent="WIyWlLk6GJQsqaUBKTNV-1" source="6U3oOu9trGSd3NTjcaqu-36" target="6U3oOu9trGSd3NTjcaqu-38">
          <mxGeometry relative="1" as="geometry" />
        </mxCell>
        <mxCell id="6U3oOu9trGSd3NTjcaqu-36" value="跳转无链sdk添加红包页面" style="whiteSpace=wrap;html=1;" vertex="1" parent="WIyWlLk6GJQsqaUBKTNV-1">
          <mxGeometry x="560" y="1140" width="120" height="60" as="geometry" />
        </mxCell>
        <mxCell id="6U3oOu9trGSd3NTjcaqu-41" value="" style="edgeStyle=orthogonalEdgeStyle;rounded=0;orthogonalLoop=1;jettySize=auto;html=1;" edge="1" parent="WIyWlLk6GJQsqaUBKTNV-1" source="6U3oOu9trGSd3NTjcaqu-38" target="6U3oOu9trGSd3NTjcaqu-40">
          <mxGeometry relative="1" as="geometry" />
        </mxCell>
        <mxCell id="6U3oOu9trGSd3NTjcaqu-38" value="返回成功参数" style="whiteSpace=wrap;html=1;" vertex="1" parent="WIyWlLk6GJQsqaUBKTNV-1">
          <mxGeometry x="760" y="1140" width="120" height="60" as="geometry" />
        </mxCell>
        <mxCell id="6U3oOu9trGSd3NTjcaqu-40" value="是否要跳转到活动中心？" style="whiteSpace=wrap;html=1;" vertex="1" parent="WIyWlLk6GJQsqaUBKTNV-1">
          <mxGeometry x="960" y="1140" width="120" height="60" as="geometry" />
        </mxCell>
        <mxCell id="6U3oOu9trGSd3NTjcaqu-63" value="" style="edgeStyle=orthogonalEdgeStyle;rounded=0;orthogonalLoop=1;jettySize=auto;html=1;" edge="1" parent="WIyWlLk6GJQsqaUBKTNV-1" source="6U3oOu9trGSd3NTjcaqu-42" target="6U3oOu9trGSd3NTjcaqu-62">
          <mxGeometry relative="1" as="geometry" />
        </mxCell>
        <mxCell id="6U3oOu9trGSd3NTjcaqu-42" value="跳转到活动中心&lt;div&gt;&lt;br&gt;&lt;/div&gt;" style="whiteSpace=wrap;html=1;" vertex="1" parent="WIyWlLk6GJQsqaUBKTNV-1">
          <mxGeometry x="160" y="1420" width="120" height="90" as="geometry" />
        </mxCell>
        <mxCell id="6U3oOu9trGSd3NTjcaqu-53" value="" style="edgeStyle=orthogonalEdgeStyle;rounded=0;orthogonalLoop=1;jettySize=auto;html=1;" edge="1" parent="WIyWlLk6GJQsqaUBKTNV-1" target="6U3oOu9trGSd3NTjcaqu-52">
          <mxGeometry relative="1" as="geometry">
            <mxPoint x="1020" y="1495" as="sourcePoint" />
          </mxGeometry>
        </mxCell>
        <mxCell id="6U3oOu9trGSd3NTjcaqu-52" value="跳转smi落地页" style="whiteSpace=wrap;html=1;" vertex="1" parent="WIyWlLk6GJQsqaUBKTNV-1">
          <mxGeometry x="960" y="1575" width="120" height="60" as="geometry" />
        </mxCell>
        <mxCell id="6U3oOu9trGSd3NTjcaqu-59" style="edgeStyle=orthogonalEdgeStyle;rounded=0;orthogonalLoop=1;jettySize=auto;html=1;entryX=0.5;entryY=1;entryDx=0;entryDy=0;" edge="1" parent="WIyWlLk6GJQsqaUBKTNV-1" target="6U3oOu9trGSd3NTjcaqu-36">
          <mxGeometry relative="1" as="geometry">
            <mxPoint x="620" y="1435" as="sourcePoint" />
          </mxGeometry>
        </mxCell>
        <mxCell id="6U3oOu9trGSd3NTjcaqu-65" value="" style="edgeStyle=orthogonalEdgeStyle;rounded=0;orthogonalLoop=1;jettySize=auto;html=1;" edge="1" parent="WIyWlLk6GJQsqaUBKTNV-1" source="6U3oOu9trGSd3NTjcaqu-62" target="6U3oOu9trGSd3NTjcaqu-64">
          <mxGeometry relative="1" as="geometry" />
        </mxCell>
        <mxCell id="6U3oOu9trGSd3NTjcaqu-62" value="&lt;div&gt;奖励信息 （无链提供）&lt;/div&gt;&lt;div&gt;&lt;br&gt;&lt;/div&gt;" style="shape=process;whiteSpace=wrap;html=1;backgroundOutline=1;" vertex="1" parent="WIyWlLk6GJQsqaUBKTNV-1">
          <mxGeometry x="360" y="1435" width="120" height="60" as="geometry" />
        </mxCell>
        <mxCell id="6U3oOu9trGSd3NTjcaqu-67" value="" style="edgeStyle=orthogonalEdgeStyle;rounded=0;orthogonalLoop=1;jettySize=auto;html=1;" edge="1" parent="WIyWlLk6GJQsqaUBKTNV-1" source="6U3oOu9trGSd3NTjcaqu-64" target="6U3oOu9trGSd3NTjcaqu-66">
          <mxGeometry relative="1" as="geometry" />
        </mxCell>
        <mxCell id="6U3oOu9trGSd3NTjcaqu-64" value="&lt;div&gt;添加红包&lt;/div&gt;&lt;div&gt;&lt;br&gt;&lt;/div&gt;" style="shape=process;whiteSpace=wrap;html=1;backgroundOutline=1;" vertex="1" parent="WIyWlLk6GJQsqaUBKTNV-1">
          <mxGeometry x="560" y="1435" width="120" height="60" as="geometry" />
        </mxCell>
        <mxCell id="6U3oOu9trGSd3NTjcaqu-69" value="" style="edgeStyle=orthogonalEdgeStyle;rounded=0;orthogonalLoop=1;jettySize=auto;html=1;" edge="1" parent="WIyWlLk6GJQsqaUBKTNV-1" source="6U3oOu9trGSd3NTjcaqu-66" target="6U3oOu9trGSd3NTjcaqu-68">
          <mxGeometry relative="1" as="geometry" />
        </mxCell>
        <mxCell id="6U3oOu9trGSd3NTjcaqu-66" value="&lt;div&gt;&lt;div&gt;邀请链接（simi落地页，有无红包参数不同，具体参数待确认）&lt;/div&gt;&lt;div&gt;&lt;br&gt;&lt;/div&gt;&lt;/div&gt;" style="shape=process;whiteSpace=wrap;html=1;backgroundOutline=1;" vertex="1" parent="WIyWlLk6GJQsqaUBKTNV-1">
          <mxGeometry x="760" y="1427.5" width="120" height="75" as="geometry" />
        </mxCell>
        <mxCell id="6U3oOu9trGSd3NTjcaqu-72" value="" style="edgeStyle=orthogonalEdgeStyle;rounded=0;orthogonalLoop=1;jettySize=auto;html=1;" edge="1" parent="WIyWlLk6GJQsqaUBKTNV-1" source="6U3oOu9trGSd3NTjcaqu-68" target="6U3oOu9trGSd3NTjcaqu-71">
          <mxGeometry relative="1" as="geometry" />
        </mxCell>
        <mxCell id="6U3oOu9trGSd3NTjcaqu-68" value="&lt;div&gt;&lt;div&gt;活动海报（跳转落地页）&lt;/div&gt;&lt;/div&gt;" style="shape=process;whiteSpace=wrap;html=1;backgroundOutline=1;" vertex="1" parent="WIyWlLk6GJQsqaUBKTNV-1">
          <mxGeometry x="960" y="1427.5" width="120" height="75" as="geometry" />
        </mxCell>
        <mxCell id="6U3oOu9trGSd3NTjcaqu-71" value="红包信息（无链提供）" style="shape=process;whiteSpace=wrap;html=1;backgroundOutline=1;" vertex="1" parent="WIyWlLk6GJQsqaUBKTNV-1">
          <mxGeometry x="1160" y="1427.5" width="120" height="75" as="geometry" />
        </mxCell>
        <mxCell id="6U3oOu9trGSd3NTjcaqu-86" value="Yes" style="edgeStyle=orthogonalEdgeStyle;rounded=0;orthogonalLoop=1;jettySize=auto;html=1;" edge="1" parent="WIyWlLk6GJQsqaUBKTNV-1" source="6U3oOu9trGSd3NTjcaqu-89">
          <mxGeometry relative="1" as="geometry">
            <mxPoint x="220" y="920" as="targetPoint" />
          </mxGeometry>
        </mxCell>
        <mxCell id="6U3oOu9trGSd3NTjcaqu-87" value="" style="edgeStyle=orthogonalEdgeStyle;rounded=0;orthogonalLoop=1;jettySize=auto;html=1;" edge="1" parent="WIyWlLk6GJQsqaUBKTNV-1" source="6U3oOu9trGSd3NTjcaqu-89" target="6U3oOu9trGSd3NTjcaqu-90">
          <mxGeometry relative="1" as="geometry" />
        </mxCell>
        <mxCell id="6U3oOu9trGSd3NTjcaqu-88" value="No" style="edgeLabel;html=1;align=center;verticalAlign=middle;resizable=0;points=[];" vertex="1" connectable="0" parent="6U3oOu9trGSd3NTjcaqu-87">
          <mxGeometry x="-0.2" y="-1" relative="1" as="geometry">
            <mxPoint as="offset" />
          </mxGeometry>
        </mxCell>
        <mxCell id="6U3oOu9trGSd3NTjcaqu-89" value="是否在无链群里" style="rhombus;whiteSpace=wrap;html=1;" vertex="1" parent="WIyWlLk6GJQsqaUBKTNV-1">
          <mxGeometry x="180" y="770" width="80" height="80" as="geometry" />
        </mxCell>
        <mxCell id="6U3oOu9trGSd3NTjcaqu-90" value="自动加入群聊并toast提示" style="whiteSpace=wrap;html=1;" vertex="1" parent="WIyWlLk6GJQsqaUBKTNV-1">
          <mxGeometry x="320" y="780" width="120" height="60" as="geometry" />
        </mxCell>
        <mxCell id="6U3oOu9trGSd3NTjcaqu-91" value="" style="edgeStyle=elbowEdgeStyle;elbow=horizontal;endArrow=classic;html=1;curved=0;rounded=0;endSize=8;startSize=8;" edge="1" parent="WIyWlLk6GJQsqaUBKTNV-1">
          <mxGeometry width="50" height="50" relative="1" as="geometry">
            <mxPoint x="440" y="810" as="sourcePoint" />
            <mxPoint x="220" y="880" as="targetPoint" />
            <Array as="points">
              <mxPoint x="510" y="780" />
            </Array>
          </mxGeometry>
        </mxCell>
        <mxCell id="6U3oOu9trGSd3NTjcaqu-114" value="" style="edgeStyle=elbowEdgeStyle;elbow=horizontal;endArrow=classic;html=1;curved=0;rounded=0;endSize=8;startSize=8;" edge="1" parent="WIyWlLk6GJQsqaUBKTNV-1">
          <mxGeometry width="50" height="50" relative="1" as="geometry">
            <mxPoint x="640" y="660" as="sourcePoint" />
            <mxPoint x="220" y="730" as="targetPoint" />
            <Array as="points">
              <mxPoint x="710" y="630" />
            </Array>
          </mxGeometry>
        </mxCell>
      </root>
    </mxGraphModel>
  </diagram>
</mxfile>
